<svg width="35" height="35" viewBox="0 0 35 35" fill="none" xmlns="http://www.w3.org/2000/svg">
<circle cx="17.5" cy="17.5" r="17.5" fill="#148EFF"/>
<path fill-rule="evenodd" clip-rule="evenodd" d="M13.0578 12.3448C17.0525 12.0215 21.3001 12.89 24.2524 14.2569C25.0304 12.3214 25.4155 10.7092 25.2754 9.20596C25.2715 9.15144 25.2715 9.02293 25.3377 9.02293C25.4271 9.02293 25.501 9.20985 25.5283 9.28774C26.0028 10.7948 25.8706 12.6446 25.1937 14.7281C27.8738 16.1612 29.4141 18.0226 29.134 19.7595C28.7684 22.0416 25.4155 23.3851 20.9112 23.2293C21.3507 22.7581 21.9497 22.0649 22.4165 21.4535C24.1552 21.1186 25.3999 20.4293 25.7266 19.3272C25.9639 18.525 25.4155 17.6371 24.3691 16.7998C22.6537 20.4254 19.7792 23.6733 17.1187 25.5503C18.4062 27.1937 19.6042 28.3347 20.9734 28.9734C21.024 28.9968 21.1368 29.0591 21.1017 29.1175C21.059 29.1915 20.8606 29.1642 20.7789 29.1486C19.2386 28.8059 17.7021 27.7662 16.2396 26.1383C13.6607 27.7467 11.2841 28.1478 9.91878 27.0379C8.12561 25.5776 8.63906 21.9987 11.0351 18.1706C11.2218 18.7859 11.5213 19.6543 11.817 20.3631C11.2413 22.0377 11.2141 23.463 12.0037 24.2963C12.5755 24.9039 13.6218 24.8727 14.8665 24.382C12.5871 21.0797 11.2179 16.9634 10.9223 13.7194C8.85688 14.0154 7.26987 14.4827 6.03294 15.3512L6.0302 15.3528C5.97867 15.3846 5.87673 15.4475 5.84234 15.3901C5.79956 15.3161 5.92014 15.1564 5.97459 15.0941C7.04427 13.9297 8.71296 13.1197 10.8523 12.6641C10.7512 9.62265 11.5914 7.36006 13.2328 6.73308C15.3916 5.90749 18.2311 8.13892 20.3471 12.1228C19.717 11.9787 18.8146 11.8035 18.0561 11.7061C16.897 10.3704 15.6795 9.63433 14.5631 9.90304C13.7541 10.0978 13.2562 11.0207 13.0578 12.3448ZM12.9567 13.552C12.9528 17.1971 14.0497 20.8032 15.9556 23.8641C19.1141 22.0493 21.6813 19.2922 23.3772 16.1105C20.2266 14.2802 16.5585 13.4313 12.9567 13.552Z" fill="white"/>
</svg>
