<svg width="25" height="20" viewBox="0 0 25 20" fill="none" xmlns="http://www.w3.org/2000/svg">
<path d="M24.2188 16.1562H3.125V1.3125C3.125 0.880859 2.77539 0.53125 2.34375 0.53125H0.78125C0.349609 0.53125 0 0.880859 0 1.3125V17.7188C0 18.5815 0.699707 19.2812 1.5625 19.2812H24.2188C24.6504 19.2812 25 18.9316 25 18.5V16.9375C25 16.5059 24.6504 16.1562 24.2188 16.1562ZM22.6562 2.09375H16.8916C15.8477 2.09375 15.3247 3.35596 16.063 4.09424L17.645 5.67627L14.0625 9.25928L10.48 5.67676C9.86963 5.06641 8.88037 5.06641 8.27051 5.67676L4.9165 9.03076C4.61133 9.33594 4.61133 9.83057 4.9165 10.1357L6.021 11.2402C6.32617 11.5454 6.8208 11.5454 7.12598 11.2402L9.375 8.99072L12.9575 12.5732C13.5679 13.1836 14.5571 13.1836 15.167 12.5732L19.8545 7.88574L21.4365 9.46777C22.1748 10.2061 23.437 9.68311 23.437 8.63916V2.875C23.4375 2.44336 23.0879 2.09375 22.6562 2.09375Z" fill="#F5F5F5"/>
</svg>
