<svg width="17" height="17" viewBox="0 0 17 17" fill="none" xmlns="http://www.w3.org/2000/svg">
<path fill-rule="evenodd" clip-rule="evenodd" d="M12.9096 5.31736C13.0179 5.42874 13.0787 5.57974 13.0787 5.73718C13.0787 5.89461 13.0179 6.0456 12.9096 6.157L7.31814 11.8998C7.20968 12.011 7.06267 12.0735 6.90939 12.0735C6.7561 12.0735 6.60908 12.011 6.50063 11.8998L3.99411 9.32544C3.89194 9.21282 3.83632 9.06387 3.83896 8.90996C3.8416 8.75605 3.90231 8.60921 4.00829 8.50035C4.11426 8.39151 4.25724 8.32916 4.4071 8.32645C4.55695 8.32373 4.70197 8.38086 4.81162 8.4858L6.90939 10.6403L12.0921 5.31736C12.2005 5.20611 12.3475 5.14362 12.5008 5.14362C12.6541 5.14362 12.8012 5.20611 12.9096 5.31736Z" fill="#24292E"/>
<rect x="0.951271" y="1.10117" width="15.0148" height="15.0148" rx="2.88746" stroke="#37352F" stroke-width="1.15498"/>
</svg>
