<svg width="31" height="16" viewBox="0 0 31 16" fill="none" xmlns="http://www.w3.org/2000/svg">
<path d="M20.3759 8.03144C20.3738 12.1593 17.0347 15.4417 12.9792 15.453C12.9713 15.4533 12.9623 15.4533 12.954 15.4533H8.31365C4.22085 15.4533 0.891755 12.1237 0.891789 8.03144C0.891444 3.93899 4.2212 0.609241 8.31365 0.609586L10.8759 0.609586C11.5554 0.609587 11.9147 1.42048 11.4521 1.91815C10.8626 2.5524 10.3576 3.27688 9.96641 4.07299C9.83396 4.34258 9.56262 4.51594 9.26223 4.51594L8.35853 4.51594C6.42324 4.51594 4.8173 6.06118 4.79831 7.9964C4.77915 9.95072 6.36365 11.547 8.31365 11.547L12.9537 11.5473C14.9004 11.5473 16.4695 9.96998 16.4695 8.03144C16.4693 7.77612 16.4397 7.54831 16.4084 7.37854C16.3861 7.25857 16.3921 7.13506 16.4261 7.01784C16.46 6.90063 16.5208 6.79297 16.6037 6.70344C16.9549 6.32493 17.4601 6.07823 18.0367 6.07823L19.4906 6.0782C19.8719 6.0782 20.1943 6.35383 20.2611 6.72913C20.3375 7.15903 20.3759 7.59481 20.3759 8.03144ZM30.1082 8.0312C30.1082 3.939 26.7791 0.609344 22.6863 0.609344H18.0459C18.0376 0.609344 18.0287 0.609344 18.0207 0.609689C13.9653 0.620945 10.6262 3.90333 10.6241 8.0312C10.6241 8.46781 10.6625 8.90357 10.7389 9.33345C10.8056 9.70875 11.1282 9.98438 11.5093 9.98438L12.9632 9.98434C13.5398 9.98434 14.045 9.73765 14.3962 9.35913C14.4791 9.26961 14.54 9.16195 14.5739 9.04474C14.6078 8.92752 14.6139 8.804 14.5916 8.68403C14.5603 8.51427 14.5307 8.28646 14.5304 8.03113C14.5304 6.0926 16.0996 4.51528 18.0463 4.51528L22.6863 4.51563C24.6363 4.51563 26.2208 6.11183 26.2017 8.06618C26.1827 10.0014 24.5768 11.5467 22.6414 11.5466H21.7377C21.4373 11.5466 21.166 11.72 21.0336 11.9896C20.6424 12.7857 20.1373 13.5102 19.5478 14.1444C19.0853 14.6421 19.4445 15.453 20.124 15.453L22.6863 15.453C26.7788 15.4534 30.1085 12.1237 30.1082 8.0312Z" fill="#F5F5F5"/>
</svg>
