<svg width="23" height="11" viewBox="0 0 23 11" fill="none" xmlns="http://www.w3.org/2000/svg">
<path d="M14.1687 5.16651C14.1744 7.79547 12.1746 9.97335 9.61516 10.2425C9.25577 10.2815 9.44415 10.2706 5.21672 10.2797C2.40225 10.2857 0.117351 8.01311 0.11185 5.19666C0.105272 2.38196 2.37842 0.0978594 5.19486 0.0917922C6.88125 0.0881748 7.86376 0.084421 8.4589 0.0835562C8.84264 0.0830158 9.04354 0.544821 8.77679 0.820713C8.45437 1.15411 8.16972 1.52207 7.928 1.91789C7.84947 2.04658 7.70869 2.12411 7.55795 2.12441L5.19898 2.12922C3.513 2.13335 2.14592 3.4995 2.14901 5.19229C2.15315 6.87826 3.5193 8.24534 5.21209 8.24225L9.08136 8.2337C10.7651 8.2299 12.1347 6.85747 12.1311 5.17088C12.1306 4.82891 12.0726 4.48944 11.9595 4.16673C11.8976 3.99047 11.9604 3.79542 12.1073 3.67997C12.4278 3.42802 12.8315 3.27734 13.2699 3.27637L13.495 3.27589C13.6815 3.27546 13.8495 3.39304 13.9087 3.57C14.0763 4.07194 14.1676 4.60882 14.1687 5.16651ZM22.2339 5.1491C22.2284 2.33265 19.9435 0.060052 17.1291 0.0660893C12.9016 0.0751574 13.09 0.0642566 12.7306 0.103311C10.1712 0.372415 8.17141 2.55029 8.17705 5.17926C8.17824 5.73694 8.26947 6.27383 8.43714 6.77576C8.49623 6.9527 8.66425 7.07025 8.85081 7.06988L9.07593 7.06939C9.51432 7.06848 9.91801 6.91775 10.2385 6.66579C10.3853 6.55034 10.4482 6.35529 10.3863 6.17903C10.2731 5.85632 10.2151 5.51686 10.2147 5.17489C10.2111 3.48829 11.5807 2.11586 13.2644 2.11207L17.1337 2.10351C18.8265 2.10042 20.1926 3.4675 20.1968 5.15347C20.1999 6.84627 18.8328 8.21242 17.1468 8.21655L14.7878 8.2214C14.6371 8.2217 14.4963 8.29924 14.4178 8.42792C14.1761 8.82375 13.8914 9.1917 13.569 9.5251C13.3023 9.80099 13.5032 10.2628 13.8869 10.2623C14.482 10.2614 15.4645 10.2576 17.1509 10.254C19.9674 10.2479 22.2405 7.96383 22.2339 5.1491Z" fill="#C5C3C0"/>
</svg>
