<svg width="31" height="30" viewBox="0 0 31 30" fill="none" xmlns="http://www.w3.org/2000/svg">
<circle cx="15.5" cy="15" r="15" fill="#1D1FFF"/>
<path fill-rule="evenodd" clip-rule="evenodd" d="M21.0847 21.9829C24.8517 20.8286 25.3833 18.4912 25.4919 17.1013C25.6063 15.6886 24.5659 12.0475 18.4666 8.94052C18.4666 8.94052 11.9557 5.57511 6.61097 7.43585C6.61097 7.43585 6.2737 7.41862 5.96502 7.87806C5.93152 7.92543 5.8985 7.97124 5.86644 8.01571C5.60308 8.381 5.40505 8.65568 5.54773 8.95775C5.70779 9.29659 6.53665 9.44591 7.27406 9.21044C7.27406 9.21044 7.6056 8.98646 7.17688 8.84863C6.96847 8.77388 6.75436 8.71626 6.53665 8.67634C6.53665 8.67634 6.32515 8.64188 6.5538 8.52702C6.76531 8.41791 9.21189 7.62537 13.5334 8.76249C17.8607 9.87663 23.7084 13.3914 23.537 17.0439C23.3655 20.6965 17.672 20.8573 17.672 20.8573C17.672 20.8573 16.5059 20.9147 14.9453 20.6161C14.94 20.3935 14.9335 20.1412 14.9265 19.8699C14.8959 18.6857 14.856 17.1412 14.8653 16.1365C17.0947 16.1365 19.3355 16.5213 19.5241 17.0726C19.5241 17.0726 19.6384 17.3253 19.1354 17.5723C18.6724 17.7733 18.318 17.9341 18.701 18.1179C18.701 18.1179 19.2612 18.3763 19.6213 18.3476C19.9643 18.3189 20.8674 17.9111 20.9418 16.9233C21.0446 15.9183 19.89 15.0339 18.1636 14.718C16.8374 14.4768 16.1343 14.3906 14.9453 14.4481C14.9339 13.3626 14.791 12.0015 14.5509 11.6857C14.5338 11.6602 14.5165 11.6343 14.4991 11.6081C14.2256 11.1975 13.9178 10.7354 13.6706 11.3239C13.4534 11.8637 13.2705 13.041 13.2076 14.6031C11.3898 14.9133 9.37194 15.6771 8.75458 16.4409C8.09721 17.2851 8.75458 17.9743 8.81746 18.0375C8.86891 18.1236 10.1951 20.0418 13.0761 21.3741C13.1333 21.8853 13.2362 22.4596 13.4362 22.7754C13.8821 23.4416 14.6938 22.9707 14.8024 22.8616C14.8825 22.7754 14.9396 22.5572 14.9682 22.0461C16.2487 22.3734 18.5981 22.7352 21.0847 21.9829ZM9.17187 17.6412C9.17187 17.6412 8.75458 17.2105 9.36051 16.9118C9.90928 16.6591 11.1097 16.326 13.1904 16.1825C13.1873 16.3787 13.1855 16.5642 13.1837 16.7492C13.1757 17.5714 13.1678 18.3867 13.0418 20.1164C11.7099 19.6398 10.3094 18.8702 9.17187 17.6412Z" fill="white"/>
</svg>
