<svg width="23" height="5" viewBox="0 0 23 5" fill="none" xmlns="http://www.w3.org/2000/svg">
<path d="M14.0556 2.5C14.0556 3.88021 12.9109 5 11.5 5C10.0891 5 8.94444 3.88021 8.94444 2.5C8.94444 1.11979 10.0891 0 11.5 0C12.9109 0 14.0556 1.11979 14.0556 2.5ZM20.4444 0C19.0336 0 17.8889 1.11979 17.8889 2.5C17.8889 3.88021 19.0336 5 20.4444 5C21.8553 5 23 3.88021 23 2.5C23 1.11979 21.8553 0 20.4444 0ZM2.55556 0C1.14468 0 0 1.11979 0 2.5C0 3.88021 1.14468 5 2.55556 5C3.96644 5 5.11111 3.88021 5.11111 2.5C5.11111 1.11979 3.96644 0 2.55556 0Z" fill="#0A66C2"/>
</svg>
