<svg width="14" height="3" viewBox="0 0 14 3" fill="none" xmlns="http://www.w3.org/2000/svg">
<path d="M8.25 1.5C8.25 2.32812 7.57812 3 6.75 3C5.92188 3 5.25 2.32812 5.25 1.5C5.25 0.671875 5.92188 0 6.75 0C7.57812 0 8.25 0.671875 8.25 1.5ZM12 0C11.1719 0 10.5 0.671875 10.5 1.5C10.5 2.32812 11.1719 3 12 3C12.8281 3 13.5 2.32812 13.5 1.5C13.5 0.671875 12.8281 0 12 0ZM1.5 0C0.671875 0 0 0.671875 0 1.5C0 2.32812 0.671875 3 1.5 3C2.32812 3 3 2.32812 3 1.5C3 0.671875 2.32812 0 1.5 0Z" fill="white"/>
</svg>
