<svg width="14" height="14" viewBox="0 0 14 14" fill="none" xmlns="http://www.w3.org/2000/svg">
<path d="M13.3622 8.8658H9.60852V4.82336H13.3622C13.4388 4.82336 13.5122 4.79294 13.5664 4.73879C13.6205 4.68464 13.651 4.6112 13.651 4.53462C13.651 4.45804 13.6205 4.38459 13.5664 4.33044C13.5122 4.27629 13.4388 4.24587 13.3622 4.24587H9.60852V0.492176C9.60852 0.415596 9.5781 0.342152 9.52394 0.288002C9.4698 0.233852 9.39635 0.20343 9.31977 0.20343C9.24319 0.20343 9.16975 0.233852 9.1156 0.288002C9.06145 0.342152 9.03102 0.415596 9.03102 0.492176V4.24587H4.98858V0.492176C4.98858 0.415596 4.95816 0.342152 4.90401 0.288002C4.84986 0.233852 4.77642 0.20343 4.69984 0.20343C4.62326 0.20343 4.54981 0.233852 4.49566 0.288002C4.44151 0.342152 4.41109 0.415596 4.41109 0.492176V4.24587H0.657398C0.580818 4.24587 0.507374 4.27629 0.453224 4.33044C0.399074 4.38459 0.368652 4.45804 0.368652 4.53462C0.368652 4.6112 0.399074 4.68464 0.453224 4.73879C0.507374 4.79294 0.580818 4.82336 0.657398 4.82336H4.41109V8.8658H0.657398C0.580818 8.8658 0.507374 8.89622 0.453224 8.95037C0.399074 9.00453 0.368652 9.07797 0.368652 9.15455C0.368652 9.23113 0.399074 9.30457 0.453224 9.35872C0.507374 9.41287 0.580818 9.44329 0.657398 9.44329H4.41109V13.197C4.41109 13.2736 4.44151 13.347 4.49566 13.4012C4.54981 13.4553 4.62326 13.4857 4.69984 13.4857C4.77642 13.4857 4.84986 13.4553 4.90401 13.4012C4.95816 13.347 4.98858 13.2736 4.98858 13.197V9.44329H9.03102V13.197C9.03102 13.2736 9.06145 13.347 9.1156 13.4012C9.16975 13.4553 9.24319 13.4857 9.31977 13.4857C9.39635 13.4857 9.4698 13.4553 9.52394 13.4012C9.5781 13.347 9.60852 13.2736 9.60852 13.197V9.44329H13.3622C13.4388 9.44329 13.5122 9.41287 13.5664 9.35872C13.6205 9.30457 13.651 9.23113 13.651 9.15455C13.651 9.07797 13.6205 9.00453 13.5664 8.95037C13.5122 8.89622 13.4388 8.8658 13.3622 8.8658ZM4.98858 8.8658V4.82336H9.03102V8.8658H4.98858Z" fill="black"/>
</svg>
