<svg width="24" height="25" viewBox="0 0 24 25" fill="none" xmlns="http://www.w3.org/2000/svg">
<path d="M12 14.125L11.2929 14.8321L12 15.5392L12.7071 14.8321L12 14.125ZM13 5.125C13 4.57272 12.5523 4.125 12 4.125C11.4477 4.125 11 4.57271 11 5.125L13 5.125ZM6.29289 9.83211L11.2929 14.8321L12.7071 13.4179L7.70711 8.41789L6.29289 9.83211ZM12.7071 14.8321L17.7071 9.83211L16.2929 8.41789L11.2929 13.4179L12.7071 14.8321ZM13 14.125L13 5.125L11 5.125L11 14.125L13 14.125Z" fill="#666666"/>
<path d="M5 16.125L5 17.125C5 18.2296 5.89543 19.125 7 19.125L17 19.125C18.1046 19.125 19 18.2296 19 17.125V16.125" stroke="#666666" stroke-width="2"/>
</svg>
