<svg width="53" height="28" viewBox="0 0 53 28" fill="none" xmlns="http://www.w3.org/2000/svg">
<path d="M48.5833 0.458313H19.875C17.4458 0.458313 15.4583 2.33331 15.4583 4.62498V23.375C15.4583 24.48 15.9237 25.5399 16.7519 26.3213C17.5802 27.1027 18.7036 27.5416 19.875 27.5416H48.5833C51.0346 27.5416 53 25.6875 53 23.375V4.62498C53 3.51991 52.5347 2.4601 51.7064 1.6787C50.8781 0.8973 49.7547 0.458313 48.5833 0.458313ZM48.5833 23.375H19.875V8.10415L34.2292 15.0416L48.5833 8.10415V23.375ZM34.2292 11.5208L19.875 4.62498H48.5833L34.2292 11.5208ZM11.0417 23.375C11.0417 23.7291 11.1079 24.0625 11.1521 24.4166H2.20833C0.989333 24.4166 0 23.4791 0 22.3333C0 21.1875 0.989333 20.25 2.20833 20.25H11.0417V23.375ZM6.625 3.58331H11.1521C11.1079 3.93748 11.0417 4.27081 11.0417 4.62498V7.74998H6.625C5.41042 7.74998 4.41667 6.81248 4.41667 5.66665C4.41667 4.52081 5.41042 3.58331 6.625 3.58331ZM2.20833 14C2.20833 12.8541 3.20208 11.9166 4.41667 11.9166H11.0417V16.0833H4.41667C3.20208 16.0833 2.20833 15.1458 2.20833 14Z" fill="white" fill-opacity="0.5"/>
</svg>
