<svg width="31" height="30" viewBox="0 0 31 30" fill="none" xmlns="http://www.w3.org/2000/svg">
<circle cx="15.5" cy="15" r="15" fill="#0A66C2"/>
<path d="M23.6237 21.875H20.518V17.0028C20.518 15.8409 20.4972 14.3453 18.9027 14.3453C17.2851 14.3453 17.0376 15.6111 17.0376 16.9182V21.8746H13.9319V11.8554H16.9134V13.2246H16.9552C17.5622 12.1849 18.6951 11.5615 19.8968 11.6062C23.0446 11.6062 23.625 13.6803 23.625 16.3786L23.6237 21.875Z" fill="white"/>
<path d="M10.4277 10.4858C10.4275 10.4858 10.4274 10.4858 10.4273 10.4858C9.43858 10.4858 8.625 9.6709 8.625 8.68045C8.625 7.69001 9.43858 6.875 10.4273 6.875C11.4159 6.875 12.2294 7.68982 12.2296 8.68008C12.2296 8.68017 12.2296 8.68027 12.2296 8.68045C12.2296 9.67071 11.4162 10.4857 10.4277 10.4858Z" fill="white"/>
<path d="M11.9805 21.875H8.87157V11.8554H11.9805V21.875Z" fill="white"/>
</svg>
