<svg width="17" height="13" viewBox="0 0 17 13" fill="none" xmlns="http://www.w3.org/2000/svg">
<path d="M15.1219 1.43952C14.8269 1.14354 14.4765 0.9087 14.0906 0.748461C13.7047 0.588222 13.2909 0.505737 12.8731 0.505737C12.4552 0.505737 12.0415 0.588222 11.6556 0.748461C11.2697 0.9087 10.9192 1.14354 10.6242 1.43952L11.3756 2.19089C11.5726 1.99389 11.8065 1.83763 12.0639 1.73102C12.3212 1.6244 12.5971 1.56953 12.8757 1.56953C13.1543 1.56953 13.4302 1.6244 13.6876 1.73102C13.9449 1.83763 14.1788 1.99389 14.3758 2.19089C14.5728 2.38789 14.7291 2.62175 14.8357 2.87914C14.9423 3.13653 14.9972 3.41239 14.9972 3.69099C14.9972 3.96958 14.9423 4.24545 14.8357 4.50283C14.7291 4.76022 14.5728 4.99409 14.3758 5.19108L10.1427 9.42416C9.74558 9.82201 9.20665 10.0458 8.6445 10.0463C8.08235 10.0468 7.54303 9.82396 7.14518 9.42681C6.74733 9.02966 6.52354 8.49073 6.52304 7.92858C6.52255 7.36643 6.74538 6.82711 7.14253 6.42926L7.88861 5.67789L7.14253 4.92652L6.39116 5.67789C6.09518 5.97284 5.86034 6.32331 5.7001 6.70922C5.53986 7.09512 5.45738 7.50886 5.45738 7.92671C5.45738 8.34456 5.53986 8.7583 5.7001 9.1442C5.86034 9.53011 6.09518 9.88058 6.39116 10.1755C6.98987 10.7666 7.7987 11.0958 8.63998 11.0909C9.05944 11.0927 9.47507 11.0112 9.86288 10.8514C10.2507 10.6916 10.603 10.4564 10.8994 10.1597L15.1325 5.92658C15.7256 5.3299 16.0576 4.52219 16.0557 3.68086C16.0537 2.83953 15.7178 2.03339 15.1219 1.43952Z" fill="#212529"/>
<path d="M1.86177 10.9957C1.66418 10.799 1.5074 10.5653 1.40042 10.3078C1.29343 10.0504 1.23836 9.77437 1.23836 9.49559C1.23836 9.21682 1.29343 8.94079 1.40042 8.68336C1.5074 8.42593 1.66418 8.19216 1.86177 7.9955L6.09484 3.76242C6.29151 3.56484 6.52527 3.40805 6.7827 3.30107C7.04013 3.19409 7.31616 3.13901 7.59494 3.13901C7.87372 3.13901 8.14975 3.19409 8.40718 3.30107C8.66461 3.40805 8.89837 3.56484 9.09504 3.76242C9.29138 3.96063 9.44593 4.19624 9.54954 4.45528C9.65316 4.71432 9.70373 4.99152 9.69825 5.27045C9.69987 5.55026 9.64598 5.82761 9.53972 6.08646C9.43345 6.34531 9.27692 6.58052 9.07917 6.77849L7.9574 7.91613L8.70877 8.6675L9.83054 7.54573C10.4277 6.94861 10.7631 6.13873 10.7631 5.29427C10.7631 4.4498 10.4277 3.63992 9.83054 3.0428C9.23341 2.44567 8.42353 2.11021 7.57907 2.11021C6.7346 2.11021 5.92473 2.44567 5.3276 3.0428L1.09452 7.27588C0.797747 7.57092 0.562234 7.92173 0.401524 8.30812C0.240815 8.69451 0.158081 9.10886 0.158081 9.52734C0.158081 9.94582 0.240815 10.3602 0.401524 10.7466C0.562234 11.133 0.797747 11.4838 1.09452 11.7788C1.69711 12.3653 2.50778 12.6889 3.34863 12.6783C4.19689 12.6792 5.01103 12.3444 5.61333 11.7471L4.86196 10.9957C4.66529 11.1933 4.43153 11.3501 4.1741 11.457C3.91667 11.564 3.64064 11.6191 3.36186 11.6191C3.08309 11.6191 2.80706 11.564 2.54962 11.457C2.29219 11.3501 2.05843 11.1933 1.86177 10.9957Z" fill="#212529"/>
</svg>
