<svg width="17" height="15" viewBox="0 0 17 15"  xmlns="http://www.w3.org/2000/svg">
<path d="M4.76562 6.73376C4.76562 6.32751 4.42188 5.98376 4.01562 5.98376H0.859375C0.421875 5.98376 0.109375 6.32751 0.109375 6.73376V9.23376C0.109375 9.67126 0.421875 9.98376 0.859375 9.98376H4.01562C4.42188 9.98376 4.76562 9.67126 4.76562 9.23376V6.73376ZM0.109375 11.7338V14.2338C0.109375 14.6713 0.421875 14.9838 0.859375 14.9838H4.01562C4.42188 14.9838 4.76562 14.6713 4.76562 14.2338V11.7338C4.76562 11.3275 4.42188 10.9838 4.01562 10.9838H0.859375C0.421875 10.9838 0.109375 11.3275 0.109375 11.7338ZM4.01562 0.983765H0.859375C0.421875 0.983765 0.109375 1.32751 0.109375 1.73376V4.23376C0.109375 4.67126 0.421875 4.98376 0.859375 4.98376H4.01562C4.42188 4.98376 4.76562 4.67126 4.76562 4.23376V1.73376C4.76562 1.32751 4.42188 0.983765 4.01562 0.983765ZM6.51562 14.9838H15.3594C15.7656 14.9838 16.1094 14.6713 16.1094 14.2338V11.7338C16.1094 11.3275 15.7656 10.9838 15.3594 10.9838H6.51562C6.10938 10.9838 5.76562 11.3275 5.76562 11.7338V14.2338C5.76562 14.6713 6.10938 14.9838 6.51562 14.9838ZM5.76562 1.73376V4.23376C5.76562 4.67126 6.10938 4.98376 6.51562 4.98376H15.3594C15.7656 4.98376 16.1094 4.67126 16.1094 4.23376V1.73376C16.1094 1.32751 15.7656 0.983765 15.3594 0.983765H6.51562C6.10938 0.983765 5.76562 1.32751 5.76562 1.73376ZM6.51562 9.98376H15.3594C15.7656 9.98376 16.1094 9.67126 16.1094 9.23376V6.73376C16.1094 6.32751 15.7656 5.98376 15.3594 5.98376H6.51562C6.10938 5.98376 5.76562 6.32751 5.76562 6.73376V9.23376C5.76562 9.67126 6.10938 9.98376 6.51562 9.98376Z" />
</svg>
