<svg width="13" height="10" viewBox="0 0 13 10" fill="none" xmlns="http://www.w3.org/2000/svg">
<path fill-rule="evenodd" clip-rule="evenodd" d="M0.651855 1.14866C0.651855 0.638358 1.10813 0.22467 1.67096 0.22467H11.1826C11.7454 0.22467 12.2017 0.638358 12.2017 1.14866C12.2017 1.65896 11.7454 2.07264 11.1826 2.07264H1.67096C1.10813 2.07264 0.651855 1.65896 0.651855 1.14866ZM1.67096 3.92062C1.10813 3.92062 0.651855 4.3343 0.651855 4.8446C0.651855 5.3549 1.10813 5.76859 1.67096 5.76859H7.10617C7.669 5.76859 8.12528 5.3549 8.12528 4.8446C8.12528 4.3343 7.669 3.92062 7.10617 3.92062H1.67096Z" fill="#37352F"/>
<path d="M1.67096 7.61656C1.10813 7.61656 0.651855 8.03025 0.651855 8.54055C0.651855 9.05085 1.10813 9.46453 1.67096 9.46453H11.1826C11.7454 9.46453 12.2017 9.05085 12.2017 8.54055C12.2017 8.03025 11.7454 7.61656 11.1826 7.61656H1.67096Z" fill="#37352F"/>
</svg>
