<svg width="19" height="20" viewBox="0 0 19 20" fill="none" xmlns="http://www.w3.org/2000/svg">
<path d="M6.18555 8.09896C6.18555 7.85657 6.28185 7.62412 6.45322 7.45273C6.62461 7.28135 6.85706 7.18506 7.09945 7.18506C7.34183 7.18506 7.57428 7.28136 7.74567 7.45274C7.91705 7.62413 8.01334 7.85657 8.01334 8.09896C8.01334 8.34135 7.91705 8.5738 7.74567 8.74519C7.57428 8.91657 7.34183 9.01287 7.09945 9.01287C6.85706 9.01287 6.6246 8.91657 6.45321 8.74519C6.28184 8.5738 6.18555 8.34135 6.18555 8.09896Z" fill="#37352F"/>
<path fill-rule="evenodd" clip-rule="evenodd" d="M14.5577 9.41956L9.58135 4.44306C9.29795 4.15883 8.91278 4 8.51224 4H4.51108C3.67693 4 3 4.67694 3 5.51109V9.51226C2.99999 9.71081 3.0391 9.90742 3.1151 10.0908C3.19111 10.2742 3.3025 10.4409 3.44294 10.5812L8.41949 15.5578C8.70285 15.841 9.08708 16 9.48764 16C9.88826 16 10.2724 15.841 10.5557 15.5578L14.5577 11.5558C14.8409 11.2724 15 10.8882 15 10.4877C15 10.0871 14.8409 9.70291 14.5577 9.41956ZM4.42969 9.51218C4.42967 9.52286 4.43176 9.53365 4.43583 9.54358C4.43991 9.55345 4.44591 9.56247 4.45347 9.57004L9.42991 14.5466C9.43744 14.5542 9.44661 14.5603 9.45639 14.5644L9.48766 14.5705C9.49856 14.5705 9.50915 14.5684 9.51893 14.5644C9.52871 14.5603 9.53778 14.5542 9.54541 14.5466L13.5467 10.5452C13.5543 10.5376 13.5603 10.5287 13.5644 10.5188L13.5705 10.4876C13.5705 10.4767 13.5685 10.4661 13.5644 10.4563C13.5603 10.4466 13.5543 10.4376 13.5467 10.43L8.57012 5.45337C8.56255 5.44581 8.55356 5.43983 8.54369 5.43575H4.50487C4.50487 5.43575 4.47091 5.4427 4.45352 5.45344C4.43613 5.46418 4.42969 5.511 4.42969 5.511V9.51218Z" fill="#37352F"/>
</svg>
