<svg width="35" height="35" viewBox="0 0 35 35" fill="none" xmlns="http://www.w3.org/2000/svg">
<circle cx="17.5" cy="17.5" r="17.5" fill="#141413"/>
<path d="M14.3452 23.2327H20.6547V11.7674H14.3452V23.2327Z" fill="#FF5F00"/>
<path d="M14.7458 17.5C14.7458 15.174 15.8229 13.1024 17.5 11.7674C16.2733 10.7909 14.7258 10.2084 13.0436 10.2084C9.06142 10.2084 5.83333 13.473 5.83333 17.5C5.83333 21.527 9.06142 24.7917 13.0436 24.7917C14.7258 24.7917 16.2733 24.2091 17.5 23.2327C15.8229 21.8975 14.7458 19.8261 14.7458 17.5Z" fill="#EB001B"/>
<path fill-rule="evenodd" clip-rule="evenodd" d="M21.9563 24.7916C25.9384 24.7916 29.1667 21.527 29.1667 17.5C29.1667 13.473 25.9384 10.2083 21.9563 10.2083C20.2742 10.2083 18.7265 10.7909 17.5 11.7673C19.1771 13.1025 20.2542 15.1741 20.2542 17.5C20.2542 19.826 19.1771 21.8976 17.5 23.2326C18.7265 24.2091 20.2742 24.7916 21.9563 24.7916ZM28.9415 22.0184V21.7354H28.8684L28.7845 21.93L28.7004 21.7354H28.6272V22.0184H28.6787V21.8049L28.7576 21.989H28.8111L28.89 21.8045V22.0184H28.9415ZM28.4786 22.0184V21.7836H28.5724V21.7358H28.334V21.7836H28.4275V22.0184H28.4786Z" fill="#F79E1B"/>
</svg>
