<svg width="19" height="15" viewBox="0 0 19 15" fill="none" xmlns="http://www.w3.org/2000/svg">
<path d="M17.4531 12.0625C18.2969 11.2188 18.8281 10.1562 18.8281 8.96875C18.8281 6.46875 16.4219 4.40625 13.2969 4.0625C12.3281 2.25 10.0156 0.96875 7.32812 0.96875C3.73438 0.96875 0.828125 3.21875 0.828125 5.96875C0.828125 7.125 1.32812 8.1875 2.20312 9.0625C1.70312 10 1.01562 10.75 1.01562 10.7812C0.828125 10.9688 0.765625 11.2812 0.859375 11.5625C0.984375 11.8125 1.23438 12 1.54688 12C3.20312 12 4.54688 11.3438 5.45312 10.7812C5.73438 10.8438 6.04688 10.875 6.32812 10.9375C7.32812 12.7188 9.60938 13.9688 12.3281 13.9688C12.9531 13.9688 13.5781 13.9062 14.1719 13.7812C15.0781 14.3438 16.4219 14.9688 18.1094 14.9688C18.3906 14.9688 18.6406 14.8125 18.7656 14.5312C18.8594 14.2812 18.8281 13.9688 18.6094 13.75C18.6094 13.75 17.9219 13 17.4531 12.0625ZM5.17188 9.15625L4.64062 9.5C4.20312 9.8125 3.73438 10.0312 3.29688 10.1875C3.35938 10.0312 3.45312 9.875 3.54688 9.71875L4.01562 8.75L3.23438 7.96875C2.82812 7.5625 2.32812 6.875 2.32812 5.96875C2.32812 4.09375 4.60938 2.46875 7.32812 2.46875C10.0156 2.46875 12.3281 4.09375 12.3281 5.96875C12.3281 7.875 10.0156 9.46875 7.32812 9.46875C6.79688 9.46875 6.29688 9.4375 5.79688 9.3125L5.17188 9.15625ZM16.3906 10.9688L15.6094 11.75L16.1094 12.7188C16.1719 12.875 16.2656 13.0312 16.3594 13.1875C15.8906 13.0312 15.4531 12.7812 15.0156 12.5L14.4531 12.1562L13.8594 12.3125C13.3594 12.4375 12.8281 12.4688 12.3281 12.4688C10.6406 12.4688 9.10938 11.8438 8.20312 10.9375C11.3906 10.5938 13.8281 8.5 13.8281 5.96875C13.8281 5.875 13.7969 5.78125 13.7969 5.65625C15.7969 6.125 17.3281 7.4375 17.3281 8.96875C17.3281 9.875 16.7969 10.5625 16.3906 10.9688Z" fill="white"/>
</svg>
