<svg width="35" height="35" viewBox="0 0 35 35" fill="none" xmlns="http://www.w3.org/2000/svg">
<circle cx="17.5" cy="17.5" r="17.5" fill="url(#paint0_linear_1_77)"/>
<path fill-rule="evenodd" clip-rule="evenodd" d="M24.7834 7.59288C23.707 6.36099 21.7631 5.83333 19.2753 5.83333H12.0553C11.5473 5.83333 11.1143 6.20455 11.035 6.70939L8.02852 25.8576C8.00006 26.0373 8.05149 26.2205 8.16925 26.3589C8.28701 26.4974 8.45929 26.5771 8.64071 26.5772H13.0984L12.7907 28.5367C12.7658 28.6939 12.8108 28.8542 12.9138 28.9754C13.0168 29.0966 13.1675 29.1665 13.3262 29.1667H17.0834C17.5283 29.1663 17.9069 28.8413 17.9758 28.4004L18.0128 28.2084L18.7202 23.7008L18.7662 23.4516C18.8351 23.0107 19.2136 22.6857 19.6585 22.6853H20.2205C23.8603 22.6853 26.7103 21.2005 27.5435 16.905C27.8908 15.1099 27.7116 13.6118 26.7912 12.5581C26.5126 12.2399 26.1669 11.9764 25.763 11.7611C26.0458 9.94636 25.7609 8.71182 24.7834 7.59288Z" fill="#009CDE"/>
<path fill-rule="evenodd" clip-rule="evenodd" d="M24.7834 7.59288C23.707 6.36099 21.7631 5.83333 19.2753 5.83333H12.0553C11.5473 5.83333 11.1143 6.20455 11.035 6.70939L8.02852 25.8576C8.00006 26.0373 8.05149 26.2205 8.16925 26.3589C8.28701 26.4974 8.45929 26.5771 8.64071 26.5772H13.0984L14.217 19.4462L14.1827 19.67C14.2596 19.1664 14.6913 18.7943 15.1993 18.7939H17.3176C21.4782 18.7939 24.7363 17.0964 25.6884 12.1864C25.7155 12.045 25.7402 11.9032 25.7625 11.7611C26.0453 9.94636 25.7603 8.71182 24.7828 7.59288H24.7834Z" fill="#012169"/>
<path fill-rule="evenodd" clip-rule="evenodd" d="M15.923 11.1083C16.042 11.051 16.1741 11.0192 16.3137 11.0192H21.9725C22.6428 11.0192 23.2677 11.0632 23.8397 11.156C24.0031 11.1825 24.1622 11.2127 24.3166 11.2467C24.5404 11.2969 24.7616 11.3579 24.9795 11.4296C25.249 11.5182 25.5107 11.6291 25.7619 11.7611C26.0453 9.94636 25.7603 8.71182 24.7829 7.59288C23.707 6.36099 21.7631 5.83333 19.2753 5.83333H12.0553C11.5473 5.83333 11.1143 6.20455 11.035 6.70939L8.02852 25.8576C8.00006 26.0373 8.05149 26.2205 8.16925 26.3589C8.28701 26.4974 8.45929 26.5771 8.64071 26.5772H13.0984L15.4208 11.7849C15.4684 11.4816 15.6624 11.2334 15.923 11.1077V11.1083Z" fill="#003087"/>
<defs>
<linearGradient id="paint0_linear_1_77" x1="52.5" y1="17.5" x2="17.5" y2="-17.5" gradientUnits="userSpaceOnUse">
<stop stop-color="#F3F3F3"/>
<stop offset="1" stop-color="white"/>
</linearGradient>
</defs>
</svg>
