<svg width="12" height="13" viewBox="0 0 12 13" fill="none" xmlns="http://www.w3.org/2000/svg">
<path fill-rule="evenodd" clip-rule="evenodd" d="M8.53361 3.9734C8.53361 4.6206 8.27984 5.24129 7.82815 5.69893C7.37644 6.15658 6.7638 6.41367 6.12499 6.41367C5.48619 6.41367 4.87355 6.15658 4.42185 5.69893C3.97014 5.24129 3.71637 4.6206 3.71637 3.9734C3.71637 3.3262 3.97014 2.70551 4.42185 2.24787C4.87355 1.79023 5.48619 1.53313 6.12499 1.53313C6.7638 1.53313 7.37644 1.79023 7.82815 2.24787C8.27984 2.70551 8.53361 3.3262 8.53361 3.9734ZM8.59238 6.97298C9.20061 6.4592 9.63782 5.76806 9.84467 4.99357C10.0514 4.21908 10.0176 3.39887 9.74794 2.64451C9.47827 1.89015 8.98576 1.23828 8.33746 0.777566C7.6891 0.316863 6.91642 0.0697021 6.12451 0.0697021C5.3326 0.0697021 4.55992 0.316863 3.91159 0.777566C3.26325 1.23828 2.77074 1.89015 2.50107 2.64451C2.23139 3.39887 2.19763 4.21908 2.4044 4.99357C2.61116 5.76806 3.0484 6.4592 3.65664 6.97298C2.70821 7.42727 1.89957 8.13431 1.31729 9.01842C0.735012 9.90258 0.401013 10.9304 0.351049 11.9921C0.346405 12.1835 0.41587 12.369 0.544586 12.509C0.673293 12.6491 0.851011 12.7325 1.03969 12.7414C1.22836 12.7504 1.41299 12.6841 1.55403 12.5568C1.69507 12.4295 1.78132 12.2514 1.79429 12.0605C1.84682 10.9326 2.32602 9.86851 3.13244 9.08919C3.93884 8.3098 5.01051 7.87498 6.12499 7.87498C7.23947 7.87498 8.31115 8.3098 9.11756 9.08919C9.92397 9.86851 10.4032 10.9326 10.4557 12.0605C10.4581 12.158 10.4796 12.2539 10.5191 12.3429C10.5586 12.4318 10.6152 12.5118 10.6857 12.5782C10.7561 12.6447 10.839 12.6962 10.9292 12.7298C11.0196 12.7634 11.1157 12.7783 11.2118 12.7737C11.308 12.7692 11.4022 12.7452 11.4891 12.7032C11.5759 12.6613 11.6536 12.6022 11.7176 12.5294C11.7817 12.4566 11.8306 12.3715 11.8617 12.2793C11.893 12.1871 11.9056 12.0894 11.8989 11.9921C11.8488 10.9303 11.5147 9.90238 10.9323 9.01822C10.3498 8.13412 9.54099 7.42713 8.59238 6.97298Z" fill="#37352F"/>
</svg>
