<svg width="54" height="40" viewBox="0 0 54 40" fill="none" xmlns="http://www.w3.org/2000/svg">
<path d="M41.875 39.3125C41.3333 38.8611 41.0625 38.3403 41.0625 37.75C41.0625 37.1597 41.3333 36.6389 41.875 36.1875L47.5 31.5L41.875 26.8125C41.3333 26.3611 41.0625 25.8403 41.0625 25.25C41.0625 24.6597 41.3333 24.1389 41.875 23.6875C42.4167 23.2361 43.0417 23.0104 43.75 23.0104C44.4583 23.0104 45.0833 23.2361 45.625 23.6875L53.25 30.0417C53.5 30.25 53.6775 30.4757 53.7825 30.7188C53.8875 30.9618 53.9392 31.2222 53.9375 31.5C53.9375 31.7778 53.885 32.0382 53.78 32.2813C53.675 32.5243 53.4983 32.75 53.25 32.9583L45.625 39.3125C45.0833 39.7639 44.4583 39.9896 43.75 39.9896C43.0417 39.9896 42.4167 39.7639 41.875 39.3125ZM17.5 37.75C16.7917 37.75 16.1975 37.55 15.7175 37.15C15.2375 36.75 14.9983 36.2556 15 35.6667V33.5833H5C3.625 33.5833 2.4475 33.175 1.4675 32.3583C0.487504 31.5417 -0.00166242 30.5611 4.24448e-06 29.4167V4.41667C4.24448e-06 3.27084 0.490004 2.28959 1.47 1.47292C2.45 0.656253 3.62667 0.248615 5 0.250004H45C46.375 0.250004 47.5525 0.658337 48.5325 1.475C49.5125 2.29167 50.0017 3.27223 50 4.41667V16.9167C50 17.507 49.76 18.0021 49.28 18.4021C48.8 18.8021 48.2067 19.0014 47.5 19C46.7917 19 46.1975 18.8 45.7175 18.4C45.2375 18 44.9983 17.5056 45 16.9167V4.41667H5V29.4167H35C35.7083 29.4167 36.3025 29.6167 36.7825 30.0167C37.2625 30.4167 37.5017 30.9111 37.5 31.5C37.5 32.0903 37.26 32.5854 36.78 32.9854C36.3 33.3854 35.7067 33.5847 35 33.5833H32.5V35.6667C32.5 36.257 32.26 36.7521 31.78 37.1521C31.3 37.5521 30.7067 37.7514 30 37.75H17.5ZM25 25.25C25.7083 25.25 26.3025 25.05 26.7825 24.65C27.2625 24.25 27.5017 23.7556 27.5 23.1667V19H32.5C33.2083 19 33.8025 18.8 34.2825 18.4C34.7625 18 35.0017 17.5056 35 16.9167C35 16.3264 34.76 15.8313 34.28 15.4313C33.8 15.0313 33.2067 14.8319 32.5 14.8333H27.5V10.6667C27.5 10.0764 27.26 9.58125 26.78 9.18126C26.3 8.78125 25.7067 8.58195 25 8.58334C24.2917 8.58334 23.6975 8.78334 23.2175 9.18334C22.7375 9.58334 22.4983 10.0778 22.5 10.6667V14.8333H17.5C16.7917 14.8333 16.1975 15.0333 15.7175 15.4333C15.2375 15.8333 14.9983 16.3278 15 16.9167C15 17.507 15.24 18.0021 15.72 18.4021C16.2 18.8021 16.7933 19.0014 17.5 19H22.5V23.1667C22.5 23.757 22.74 24.2521 23.22 24.6521C23.7 25.0521 24.2933 25.2514 25 25.25Z" fill="white" fill-opacity="0.5"/>
</svg>
