<svg width="14" height="12" viewBox="0 0 14 12" fill="none" xmlns="http://www.w3.org/2000/svg">
<path d="M4.90746 3.15385H11.355L9.45696 1.25638L10.1988 0.508179L13.3736 3.68299L10.1988 6.8578L9.45696 6.10907L11.3534 4.21212H4.90746C4.06544 4.21212 3.25792 4.54661 2.66253 5.142C2.06714 5.7374 1.73265 6.54492 1.73265 7.38693C1.73265 8.22894 2.06714 9.03647 2.66253 9.63186C3.25792 10.2273 4.06544 10.5617 4.90746 10.5617H9.14054V11.62H4.90746C3.78477 11.62 2.70807 11.174 1.91422 10.3802C1.12036 9.58632 0.674377 8.50961 0.674377 7.38693C0.674377 6.26425 1.12036 5.18755 1.91422 4.39369C2.70807 3.59984 3.78477 3.15385 4.90746 3.15385Z" fill="#212529"/>
</svg>
