<svg width="46" height="37" viewBox="0 0 46 37" fill="none" xmlns="http://www.w3.org/2000/svg">
<path d="M33.8342 27.965L37.1632 30.871C37.4053 31.0824 37.7079 31.188 38.0711 31.188C38.4342 31.188 38.7368 31.0824 38.9789 30.871C39.2211 30.6597 39.3421 30.3955 39.3421 30.0785C39.3421 29.7615 39.2211 29.4973 38.9789 29.2859L35.7105 26.4328L39.0395 23.5268C39.2816 23.3154 39.4026 23.0513 39.4026 22.7343C39.4026 22.4172 39.2816 22.1531 39.0395 21.9417C38.7974 21.7304 38.4947 21.6247 38.1316 21.6247C37.7684 21.6247 37.4658 21.7304 37.2237 21.9417L33.8947 24.8477L30.5658 21.9417C30.3237 21.7304 30.0211 21.6247 29.6579 21.6247C29.2947 21.6247 28.9921 21.7304 28.75 21.9417C28.5079 22.1531 28.3868 22.4172 28.3868 22.7343C28.3868 23.0513 28.5079 23.3154 28.75 23.5268L32.0789 26.4328L28.6895 29.3916C28.4474 29.6029 28.336 29.8495 28.3554 30.1313C28.3747 30.4131 28.5063 30.6597 28.75 30.871C28.9921 31.0824 29.2851 31.188 29.6288 31.188C29.9726 31.188 30.2648 31.0824 30.5053 30.871L33.8342 27.965ZM5.51492e-06 29.6029C5.51492e-06 30.3779 0.363163 30.9682 1.08948 31.374C1.81579 31.7798 2.58246 31.8411 3.38948 31.5579L16.9474 26.5385V26.4328C16.9474 25.5874 17.0281 24.7681 17.1895 23.9748C17.3509 23.1816 17.593 22.3806 17.9158 21.5719L4.84211 26.4328V19.0357L19.3684 15.8656L4.84211 12.6954V5.29834L26.2684 13.2238C27.4386 12.7306 28.6491 12.3431 29.9 12.0614C31.1509 11.7796 32.4825 11.6387 33.8947 11.6387H34.621L3.32895 0.173233C2.52193 -0.10856 1.76495 -0.0465647 1.05801 0.359217C0.351058 0.764998 -0.00160852 1.35465 5.51492e-06 2.12817V29.6029ZM33.8947 37C30.5456 37 27.6904 35.9693 25.3291 33.908C22.9677 31.8467 21.7879 29.355 21.7895 26.4328C21.7895 23.5092 22.9701 21.0167 25.3315 18.9554C27.6928 16.8941 30.5472 15.8641 33.8947 15.8656C37.2439 15.8656 40.0991 16.8962 42.4604 18.9575C44.8218 21.0188 46.0016 23.5106 46 26.4328C46 29.3564 44.8193 31.8488 42.458 33.9101C40.0967 35.9715 37.2422 37.0014 33.8947 37ZM4.84211 21.5719V26.4328V5.29834V21.5719Z" fill="white" fill-opacity="0.5"/>
</svg>
