<svg width="16" height="16" viewBox="0 0 16 16" fill="none" xmlns="http://www.w3.org/2000/svg">
<path d="M7.9375 15.7188C12.1875 15.7188 15.6875 12.25 15.6875 7.96875C15.6875 3.71875 12.1875 0.21875 7.9375 0.21875C3.65625 0.21875 0.1875 3.71875 0.1875 7.96875C0.1875 12.25 3.65625 15.7188 7.9375 15.7188ZM4.6875 13.3438L6.375 11.6562C7.34375 12.0938 8.5 12.0938 9.46875 11.6562L11.1562 13.3438C9.1875 14.5312 6.65625 14.5312 4.6875 13.3438ZM10.4375 7.96875C10.4375 9.375 9.3125 10.4688 7.9375 10.4688C6.53125 10.4688 5.4375 9.375 5.4375 7.96875C5.4375 6.59375 6.53125 5.46875 7.9375 5.46875C9.3125 5.46875 10.4375 6.59375 10.4375 7.96875ZM13.2812 11.2188L11.5938 9.53125C12.0312 8.5625 12.0312 7.40625 11.5938 6.4375L13.2812 4.75C14.4688 6.71875 14.4688 9.25 13.2812 11.2188ZM11.1562 2.625L9.46875 4.3125C8.5 3.875 7.34375 3.875 6.375 4.3125L4.6875 2.625C6.65625 1.4375 9.1875 1.4375 11.1562 2.625ZM2.5625 4.75L4.25 6.4375C3.8125 7.40625 3.8125 8.5625 4.25 9.53125L2.5625 11.2188C1.375 9.25 1.375 6.71875 2.5625 4.75Z" fill="white"/>
</svg>
