<svg width="35" height="35" viewBox="0 0 35 35" fill="none" xmlns="http://www.w3.org/2000/svg">
<circle cx="17.5" cy="17.5" r="17.5" fill="#C5C3C0"/>
<path fill-rule="evenodd" clip-rule="evenodd" d="M23.2782 6.5625C26.9274 6.5625 29.8958 9.51975 29.8958 13.1547C29.8958 16.7896 26.9274 19.7472 23.2782 19.7472L23.1279 19.7449L17.1624 23.9848L17.1666 24.1013L17.1684 24.2187C17.1684 26.9475 14.9402 29.1667 12.201 29.1667C9.85833 29.1667 7.88961 27.5438 7.36893 25.3665L7.33085 25.1935L0.665753 22.4494C0.23212 20.9273 0 19.3207 0 17.6599C0 17.1955 0.0181478 16.7354 0.0537744 16.2801L9.40555 20.1317L9.57883 20.0189C10.3404 19.545 11.2393 19.2707 12.201 19.2707L12.3399 19.2729L12.4779 19.279L16.6606 13.24L16.6602 13.1547C16.6602 9.51975 19.6287 6.5625 23.2782 6.5625ZM23.2778 8.76226C20.8465 8.76226 18.8682 10.7328 18.8682 13.1547C18.8682 15.5769 20.8465 17.5467 23.2778 17.5467C25.7096 17.5463 27.6875 15.5765 27.6875 13.1547C27.6875 10.7328 25.7096 8.76226 23.2778 8.76226ZM11.0545 20.6786C11.8697 20.4161 12.7775 20.4276 13.6287 20.7805C14.5479 21.1623 15.2627 21.8775 15.6415 22.7946C16.0212 23.7113 16.0188 24.7209 15.636 25.6353C14.8454 27.5264 12.6584 28.423 10.7614 27.6359C9.94246 27.2958 9.31215 26.6952 8.92116 25.9725L8.84106 25.8159L10.9967 26.7029L11.1327 26.7553C12.4985 27.2409 14.0224 26.5801 14.5855 25.231C15.1499 23.8823 14.5484 22.3401 13.2409 21.7155L13.1079 21.6562L10.8812 20.7391L11.0545 20.6786Z" fill="#171A21"/>
<path d="M23.2854 9.84772C25.1149 9.84772 26.5981 11.3248 26.5981 13.1472C26.5981 14.9696 25.1149 16.4466 23.2854 16.4466C21.4558 16.4466 19.9726 14.9692 19.9726 13.1472C19.9726 11.3248 21.4558 9.84772 23.2854 9.84772Z" fill="#171A21"/>
</svg>
