<svg width="15" height="15" viewBox="0 0 15 15" fill="none" xmlns="http://www.w3.org/2000/svg">
<path d="M12.8884 0.189706L0.701797 7.2181C-0.305938 7.80111 -0.209265 9.29234 0.868777 9.73472L4.21715 11.1205V13.5932C4.21715 14.9525 5.95139 15.5121 6.75407 14.4311L8.03717 12.6996L11.3152 14.0531C11.4881 14.1234 11.6697 14.1586 11.8513 14.1586C12.0915 14.1586 12.3288 14.0971 12.5427 13.977C12.9177 13.766 13.1754 13.391 13.2428 12.9662L14.9829 1.62234C15.1616 0.447521 13.902 -0.393307 12.8884 0.189706ZM5.62329 13.5932V11.7006L6.69548 12.143L5.62329 13.5932ZM11.8513 12.7523L7.34582 10.892L11.4529 4.96514C11.7664 4.51104 11.1746 3.98369 10.7586 4.34404L4.56283 9.74351L1.40487 8.43686L13.5914 1.40554L11.8513 12.7523Z" fill="#0377BF"/>
</svg>
