<svg width="28" height="28" viewBox="0 0 28 28" fill="none" xmlns="http://www.w3.org/2000/svg">
<path d="M19.1 8.37501C19.1 8.70003 19.036 9.02187 18.9116 9.32215C18.7872 9.62243 18.6049 9.89528 18.3751 10.1251C18.1453 10.3549 17.8724 10.5372 17.5722 10.6616C17.2719 10.786 16.95 10.85 16.625 10.85C16.3 10.85 15.9782 10.786 15.6779 10.6616C15.3776 10.5372 15.1047 10.3549 14.8749 10.1251C14.6451 9.89528 14.4628 9.62243 14.3384 9.32215C14.214 9.02187 14.15 8.70003 14.15 8.37501C14.15 7.7186 14.4108 7.08908 14.8749 6.62492C15.3391 6.16077 15.9686 5.90001 16.625 5.90001C17.2814 5.90001 17.9109 6.16077 18.3751 6.62492C18.8393 7.08908 19.1 7.7186 19.1 8.37501ZM17.45 8.37501C17.45 8.15621 17.3631 7.94637 17.2084 7.79165C17.0537 7.63693 16.8438 7.55001 16.625 7.55001C16.4062 7.55001 16.1964 7.63693 16.0416 7.79165C15.8869 7.94637 15.8 8.15621 15.8 8.37501C15.8 8.59382 15.8869 8.80366 16.0416 8.95837C16.1964 9.11309 16.4062 9.20001 16.625 9.20001C16.8438 9.20001 17.0537 9.11309 17.2084 8.95837C17.3631 8.80366 17.45 8.59382 17.45 8.37501ZM0.950012 5.90001C0.950012 4.58719 1.47153 3.32814 2.39983 2.39983C3.32814 1.47153 4.58719 0.950012 5.90001 0.950012H19.1C20.4128 0.950012 21.6719 1.47153 22.6002 2.39983C23.5285 3.32814 24.05 4.58719 24.05 5.90001V10.855C23.4874 10.8814 22.928 11.0068 22.4 11.2328V5.90001C22.4 5.0248 22.0523 4.18543 21.4335 3.56656C20.8146 2.94769 19.9752 2.60001 19.1 2.60001H5.90001C5.0248 2.60001 4.18543 2.94769 3.56656 3.56656C2.94769 4.18543 2.60001 5.0248 2.60001 5.90001V20.4629C2.60028 20.5278 2.61966 20.5911 2.65574 20.6451C2.69181 20.699 2.74297 20.7411 2.80283 20.7661C2.86269 20.7911 2.92859 20.7979 2.9923 20.7856C3.056 20.7734 3.11469 20.7426 3.16101 20.6972L4.49256 19.3838L4.48926 19.3789L6.21846 17.6794L6.55836 17.3461L10.7659 13.2128C11.2287 12.7583 11.8514 12.5037 12.5 12.5037C13.1487 12.5037 13.7714 12.7583 14.2342 13.2128L17.1134 16.0409L15.9469 17.2091L13.0775 14.3893C12.9233 14.2381 12.716 14.1534 12.5 14.1534C12.2841 14.1534 12.0767 14.2381 11.9225 14.3893L7.37511 18.8558L4.32096 21.872C3.07026 23.1062 0.950012 22.2185 0.950012 20.4629V5.90001ZM1.61001 24.1078C2.21886 24.4114 2.97951 24.6605 3.61806 24.5203C4.03221 24.4279 4.57011 24.2018 5.17401 23.9477C6.63426 23.3323 8.47896 22.5568 9.89631 23.1277C10.9474 23.5501 10.8599 24.7463 10.5646 25.3222C10.5068 25.4311 10.5514 25.5862 10.6718 25.6142C11.2753 25.7369 11.8914 25.7856 12.5066 25.7594C12.5133 25.6815 12.526 25.6043 12.5446 25.5284L13.1633 23.0567C13.3216 22.4192 13.6514 21.8371 14.117 21.3737L22.0865 13.4042C22.3723 13.1141 22.7126 12.8834 23.0879 12.7255C23.4633 12.5676 23.8661 12.4855 24.2733 12.484C24.6806 12.4825 25.084 12.5616 25.4605 12.7168C25.837 12.8719 26.179 13.1001 26.4669 13.3881C26.7548 13.6761 26.9828 14.0182 27.1378 14.3947C27.2929 14.7713 27.3718 15.1748 27.3702 15.582C27.3685 15.9892 27.2863 16.392 27.1282 16.7673C26.9701 17.1426 26.7393 17.4828 26.4491 17.7685L18.4796 25.7363C18.0154 26.2008 17.4336 26.5304 16.7966 26.69L14.7803 27.1933C12.9307 27.7345 10.1702 27.5596 9.31386 26.8913C8.57301 26.3138 8.54331 25.4278 8.79246 24.8387C8.84856 24.7067 8.74956 24.5368 8.60931 24.5582C7.79256 24.6737 7.12431 24.9707 6.46431 25.2628C5.49906 25.6918 4.55691 26.1092 3.20391 25.9409C2.03076 25.7957 1.37736 25.1836 1.01766 24.5797C0.816362 24.2431 1.25856 23.9329 1.61001 24.1078Z" fill="white"/>
</svg>
