<svg width="13" height="12" viewBox="0 0 13 12" fill="none" xmlns="http://www.w3.org/2000/svg">
<path d="M8.7421 3.15385H2.29459L4.1926 1.25638L3.45075 0.508179L0.27594 3.68299L3.45075 6.8578L4.1926 6.10907L2.29618 4.21212H8.7421C9.58411 4.21212 10.3916 4.54661 10.987 5.142C11.5824 5.7374 11.9169 6.54492 11.9169 7.38693C11.9169 8.22894 11.5824 9.03647 10.987 9.63186C10.3916 10.2273 9.58411 10.5617 8.7421 10.5617H4.50902V11.62H8.7421C9.86478 11.62 10.9415 11.174 11.7353 10.3802C12.5292 9.58632 12.9752 8.50961 12.9752 7.38693C12.9752 6.26425 12.5292 5.18755 11.7353 4.39369C10.9415 3.59984 9.86478 3.15385 8.7421 3.15385Z" fill="#212529"/>
</svg>
