<svg width="33" height="33" viewBox="0 0 33 33" fill="none" xmlns="http://www.w3.org/2000/svg">
<path d="M28.875 16.5H24.4454C23.9214 16.5 23.6594 16.5 23.4383 16.6183C23.2172 16.7367 23.0719 16.9546 22.7813 17.3906L21.2187 19.7344C20.9281 20.1704 20.7828 20.3883 20.5617 20.5067C20.3406 20.625 20.0786 20.625 19.5546 20.625H13.4454C12.9214 20.625 12.6594 20.625 12.4383 20.5067C12.2172 20.3883 12.0719 20.1704 11.7813 19.7344L10.2187 17.3906C9.92809 16.9546 9.78277 16.7367 9.56167 16.6183C9.34058 16.5 9.0786 16.5 8.55463 16.5H4.125" stroke="white" stroke-width="2"/>
<path d="M6.875 12.375L4.41789 14.8321C4.23036 15.0196 4.125 15.274 4.125 15.5392V24.125C4.125 25.2296 5.02043 26.125 6.125 26.125H26.875C27.9796 26.125 28.875 25.2296 28.875 24.125V15.5392C28.875 15.274 28.7696 15.0196 28.5821 14.8321L26.125 12.375" stroke="white" stroke-width="2" stroke-linecap="round"/>
<path d="M11.6875 9.625L16.5 13.75M16.5 13.75L21.3125 9.625M16.5 13.75L16.5 4.125" stroke="white" stroke-width="2"/>
</svg>
