<svg width="36" height="35" viewBox="0 0 36 35" fill="none" xmlns="http://www.w3.org/2000/svg">
<ellipse cx="18" cy="17.5" rx="18" ry="17.5" fill="#1434CB"/>
<path fill-rule="evenodd" clip-rule="evenodd" d="M21.8591 13.8542C20.0485 13.8542 18.4304 14.7652 18.4304 16.4485C18.4304 17.5781 19.4132 18.0924 20.2285 18.519C20.8064 18.8213 21.3001 19.0797 21.3001 19.4819C21.3001 19.8902 20.8181 20.2557 19.9948 20.2557C18.8264 20.2557 17.9532 19.745 17.9532 19.745L17.5795 21.4436C17.5795 21.4436 18.5855 21.875 19.9211 21.875C21.9006 21.875 23.4583 20.9192 23.4583 19.2072C23.4583 17.9816 22.418 17.4457 21.5875 17.0179C21.0358 16.7337 20.5767 16.4972 20.5767 16.138C20.5767 15.8181 20.9724 15.4676 21.7933 15.4676C22.7196 15.4676 23.4752 15.8391 23.4752 15.8391L23.8409 14.1985C23.8409 14.1985 23.0187 13.8542 21.8591 13.8542ZM5.29384 13.978L5.25 14.2256C5.25 14.2256 6.01172 14.3609 6.69778 14.6309C7.58113 14.9405 7.64406 15.1207 7.79283 15.6804L9.41398 21.7473H11.5871L14.9351 13.978H12.7669L10.6156 19.2604L9.73781 14.7828C9.6573 14.2703 9.24952 13.978 8.75037 13.978H5.29384ZM14.106 21.7473L15.8069 13.978H17.8685L16.1736 21.7473H14.106ZM27.3383 13.978C26.8397 13.978 26.5756 14.2371 26.3818 14.6899L23.3527 21.7473H25.5209L25.9404 20.5711H28.5818L28.8369 21.7473H30.75L29.081 13.978H27.3383ZM28.263 18.9925L27.6203 16.077L26.5412 18.9925H28.263Z" fill="white"/>
</svg>
